<?xml version="1.0" encoding="utf-8"?>
<!-- Generator: Adobe Illustrator 19.2.1, SVG Export Plug-In . SVG Version: 6.00 Build 0)  -->
<svg version="1.1" id="layer" xmlns="http://www.w3.org/2000/svg" xmlns:xlink="http://www.w3.org/1999/xlink" x="0px" y="0px"
	 viewBox="0 0 652 652" style="enable-background:new 0 0 652 652;" xml:space="preserve">
<style type="text/css">
	.st0{fill:#FFFFFF;}
	.st1{fill:#23A0BA;}
</style>
<g>
	<path class="st0" d="M196.7,371.9c0-2.2-1.8-4.1-4.1-4.1s-4.1,1.8-4.1,4.1c0,2.2,1.8,4.1,4.1,4.1S196.7,374.1,196.7,371.9"/>
	<path class="st1" d="M570.3,539.7c0,17.1-13.9,31-31,31h-438c-17.1,0-31-13.9-31-31v-438c0-17.1,13.9-31,31-31h438
		c17.1,0,31,13.9,31,31V539.7z"/>
	<polygon class="st0" points="195.2,247.9 195.2,213.6 145.6,213.6 145.6,247.9 132.8,247.9 132.8,167.7 145.6,167.7 145.6,201.5 
		195.2,201.5 195.2,167.7 208,167.7 208,247.9 	"/>
	<path class="st0" d="M274.3,255.9c-27,0-47.3-20.6-47.3-47.9c0-27,20.9-48.2,47.5-48.2c27,0,47.3,20.6,47.3,47.9
		C321.8,234.7,300.9,255.9,274.3,255.9 M274.3,171.8c-19.4,0-34.1,15.4-34.1,35.9c0,20.6,14.8,36.2,34.4,36.2
		c19.4,0,34.1-15.4,34.1-35.9C308.7,187.3,293.9,171.8,274.3,171.8"/>
	<path class="st0" d="M378.3,255.7c-24,0-38.9-15.5-38.9-40.6v-47.5h12.8v46.8c0,18.5,9.6,29.2,26.4,29.2c16.7,0,26-10.1,26-28.5
		v-47.5h12.8v46.7C417.3,240.3,402.7,255.7,378.3,255.7"/>
	<path class="st0" d="M500,252l-24.4-32.8h-23.9v28.7h-12.8v-86.6H479c20.6,0,34,11.1,34,28.3c0,14.1-8.6,23.9-23.6,27.3l20.8,27.6
		L500,252z M478.1,207.4c13.3,0,22-6.8,22-17.4c0-10.6-8-16.7-21.8-16.7h-26.6v34.1H478.1z"/>
	<path class="st0" d="M290.4,354.3c-19.8,0-33.1-15.5-33.1-33.6c0-18,13.5-33.8,33.3-33.8c19.8,0,33.1,15.5,33.1,33.6
		C323.7,338.6,310.3,354.3,290.4,354.3 M290.4,293.8c-14.9,0-25.5,11.9-25.5,26.8c0,14.9,10.8,27,25.7,27
		c14.9,0,25.5-11.9,25.5-26.8C316.1,305.9,305.3,293.8,290.4,293.8"/>
	<polygon class="st0" points="382.7,294.9 346.6,294.9 346.6,318.2 378.5,318.2 378.5,324.9 346.6,324.9 346.6,353.2 339.3,353.2 
		339.3,288.1 382.7,288.1 	"/>
	<path class="st0" d="M180.1,481.6c-26.6,0-46.6-20.6-46.6-47.9c0-27.5,20.2-48.2,47-48.2c15.2,0,24.6,5,32.1,11.1
		c1.4,1.2-7,10.8-8.2,9.8c-7.6-6.2-15-8.9-24-8.9c-19.2,0-33.7,15.4-33.7,35.9c0,20.6,14.5,36.2,33.7,36.2c10.8,0,18.1-3.8,25-9.7
		c1.1-0.9,9.3,7.9,7.9,9.2C205.8,475.7,195.8,481.6,180.1,481.6"/>
	<path class="st0" d="M273.5,481.6c-27,0-47.3-20.6-47.3-47.9c0-27,20.9-48.2,47.5-48.2c27,0,47.3,20.6,47.3,47.9
		C321.1,460.4,300.2,481.6,273.5,481.6 M273.5,397.5c-19.4,0-34.1,15.4-34.1,35.9c0,20.6,14.8,36.2,34.4,36.2
		c19.4,0,34.1-15.4,34.1-35.9C307.9,413.1,293.1,397.5,273.5,397.5"/>
	<path class="st0" d="M340,480.1v-93h32.7c28.6,0,49.3,19.5,49.3,46.4c0,27-20.8,46.6-49.3,46.6H340z M372.7,468
		c21.3,0,36.2-14.1,36.2-34.4c0-20.4-14.9-34.6-36.2-34.6h-19.9v69H372.7z"/>
	<polygon class="st0" points="441,480.1 441,387.1 503.1,387.1 503.1,398.9 453.8,398.9 453.8,427.2 497.4,427.2 497.4,439.1 
		453.8,439.1 453.8,468.2 503.3,468.2 503.3,480.1 	"/>
	<path class="st0" d="M145.6,167.7c0,3.5-2.9,6.4-6.4,6.4c-3.5,0-6.4-2.9-6.4-6.4c0-3.5,2.9-6.4,6.4-6.4
		C142.8,161.3,145.6,164.2,145.6,167.7"/>
	<path class="st0" d="M208,167.7c0,3.5-2.9,6.4-6.4,6.4c-3.5,0-6.4-2.9-6.4-6.4c0-3.5,2.9-6.4,6.4-6.4
		C205.2,161.3,208,164.2,208,167.7"/>
	<path class="st0" d="M352.2,167.7c0,3.5-2.9,6.4-6.4,6.4c-3.5,0-6.4-2.9-6.4-6.4c0-3.5,2.9-6.4,6.4-6.4
		C349.3,161.3,352.2,164.2,352.2,167.7"/>
	<path class="st0" d="M451.6,247.9c0,3.5-2.9,6.4-6.4,6.4c-3.5,0-6.4-2.9-6.4-6.4c0-3.5,2.9-6.4,6.4-6.4
		C448.8,241.5,451.6,244.4,451.6,247.9"/>
	<path class="st0" d="M509.1,393c0,3.3-2.7,6-6,6c-3.3,0-6-2.7-6-6c0-3.3,2.7-6,6-6C506.4,387,509.1,389.7,509.1,393"/>
	<path class="st0" d="M509.1,474.1c0,3.3-2.7,6-6,6c-3.3,0-6-2.7-6-6c0-3.3,2.7-6,6-6C506.4,468.2,509.1,470.8,509.1,474.1"/>
	<path class="st0" d="M511.2,248c0,3.5-2.8,6.3-6.3,6.3c-3.5,0-6.4-2.8-6.4-6.3c0-3.5,2.8-6.3,6.4-6.3
		C508.4,241.6,511.2,244.5,511.2,248"/>
	<path class="st0" d="M417.3,167.7c0,3.5-2.9,6.4-6.4,6.4c-3.5,0-6.4-2.9-6.4-6.4c0-3.5,2.9-6.4,6.4-6.4
		C414.4,161.3,417.3,164.2,417.3,167.7"/>
	<path class="st0" d="M145.6,247.9c0,3.5-2.9,6.4-6.4,6.4c-3.5,0-6.4-2.9-6.4-6.4c0-3.5,2.9-6.4,6.4-6.4
		C142.8,241.5,145.6,244.4,145.6,247.9"/>
	<path class="st0" d="M208,247.9c0,3.5-2.9,6.4-6.4,6.4c-3.5,0-6.4-2.9-6.4-6.4c0-3.5,2.9-6.4,6.4-6.4
		C205.2,241.5,208,244.4,208,247.9"/>
	<path class="st0" d="M503.3,433.2c0,3.3-2.7,5.9-5.9,5.9c-3.3,0-5.9-2.7-5.9-5.9c0-3.3,2.7-5.9,5.9-5.9
		C500.6,427.2,503.3,429.9,503.3,433.2"/>
	<path class="st0" d="M214.9,401.5c0-3.5-2.9-6.4-6.4-6.4c-3.5,0-6.4,2.9-6.4,6.4c0,3.5,2.9,6.4,6.4,6.4
		C212,407.9,214.9,405.1,214.9,401.5"/>
	<path class="st0" d="M386,291.5c0,1.9-1.5,3.4-3.4,3.4c-1.9,0-3.4-1.5-3.4-3.4c0-1.9,1.5-3.4,3.4-3.4
		C384.5,288.1,386,289.7,386,291.5"/>
	<path class="st0" d="M381.9,321.5c0,1.9-1.5,3.4-3.4,3.4c-1.9,0-3.4-1.5-3.4-3.4c0-1.9,1.5-3.4,3.4-3.4
		C380.3,318.1,381.9,319.7,381.9,321.5"/>
</g>
</svg>
